# xmcd
#
# Track frame offsets: 
#        150
#        18770
#        39645
#        58266
#
# Disc length: 1053 seconds
#
# Revision: 1
# Processed by: cddbd v1.5.2PL0 Copyright (c) Steve Scherf et al.
# Submitted via: ExactAudioCopy v1.3
#
DISCID=2c041b04
DTITLE=Poppin'Party - Jumpin'
DYEAR=2019
DGENRE=Anime
TTITLE0=Jumpin'
TTITLE1=What's the POPIPA!?
TTITLE2=Jumpin' -instrumental-
TTITLE3=What's the POPIPA!? -instrumental-
EXTD=YEAR: 1994
EXTT0=
EXTT1=
EXTT2=
EXTT3=
PLAYORDER=
